<?xml version="1.0" encoding="utf-8"?>
<?xml-stylesheet type="text/xsl" href="rss1.xsl"?>
<rss version="2.0" xmlns:atom="http://www.w3.org/2005/Atom" xmlns:content="http://purl.org/rss/1.0/modules/content/" xmlns:dc="http://purl.org/dc/elements/1.1/" xmlns:media="http://search.yahoo.com/mrss/">
<channel>
 <title>Getty</title>
 <link>http://www.gettyimg.com/</link>
 <atom:link href="http://www.gettyimg.com/" rel="self" type="application/rss+xml" />

 
                <item>
                <title><![CDATA[【Apple Music】WEB-RiP - Delia &amp; Deepcentral - Gura ta (1080p)]]></title>
                <link><![CDATA[https://sharemania.us/threads/delia-deepcentral-gura-ta-1080p.249087/]]></link>
                <description><![CDATA[<article>
<blockquote class="messageText SelectQuoteContainer ugc baseHtml">
<img src="https://i.postimg.cc/KcVj6x4t/Delia-Deepcentral-Gura-ta-mp4.jpg" class="bbCodeImage LbImage" alt="[​IMG]" data-url="https://i.postimg.cc/KcVj6x4t/Delia-Deepcentral-Gura-ta-mp4.jpg" style=""><br>
<br>
<div class="bbCodeBlock bbCodeCode">
<div class="type">Code:</div>
<pre>General
Complete name                  : G:\Новая папка\Delia &amp; Deepcentral - Gura ta.mp4
Format                         : MPEG-4
Format profile                 : Base Media
Codec ID                       : isom (isom/iso2/avc1/mp41)
File size                      : 175 MiB
Duration                       : 3 min 34 s
Overall bit rate               : 6 848 kb/s
Frame rate                     : 25.000 FPS
Movie name                     : Gura ta
Performer                      : Delia &amp; Deepcentral
Genre                          : Pop
ContentType                    : Music Video
Recorded date                  : 2021-09-10 07:00:00 UTC
Writing application            : Lavf56.30.100
Copyright                      : ℗ 2016 Cat Music / Universal Music Romania

Video
ID                             : 1
Format                         : AVC
Format/Info                    : Advanced Video Codec
Format profile                 : High@L4
Format settings                : CABAC / 4 Ref Frames
Format settings, CABAC         : Yes
Format settings, Reference fra : 4 frames
Format settings, Slice count   : 8 slices per frame
Codec ID                       : avc1
Codec ID/Info                  : Advanced Video Coding
Duration                       : 3 min 34 s
Bit rate                       : 6 583 kb/s
Width                          : 1 920 pixels
Height                         : 1 080 pixels
Display aspect ratio           : 16:9
Frame rate mode                : Constant
Frame rate                     : 25.000 FPS
Color space                    : YUV
Chroma subsampling             : 4:2:0
Bit depth                      : 8 bits
Scan type                      : Progressive
Bits/(Pixel*Frame)             : 0.127
Stream size                    : 169 MiB (96%)
Color range                    : Limited
Color primaries                : BT.709
Transfer characteristics       : BT.709
Matrix coefficients            : BT.709
Codec configuration box        : avcC

Audio
ID                             : 2
Format                         : AAC LC
Format/Info                    : Advanced Audio Codec Low Complexity
Codec ID                       : mp4a-40-2
Duration                       : 3 min 34 s
Duration_LastFrame             : -7 ms
Bit rate mode                  : Constant
Bit rate                       : 265 kb/s
Channel(s)                     : 2 channels
Channel layout                 : L R
Sampling rate                  : 48.0 kHz
Frame rate                     : 46.875 FPS (1024 SPF)
Compression mode               : Lossy
Stream size                    : 6.69 MiB (4%)
Default                        : Yes
Alternate group                : 1

</pre>
</div>
<div class="bbCodeBlock bbCodeVfcHH HiddenContent">
<div class="attribution type">Hidden Content:</div>
<blockquote>You must either reply or click 'Like' to see the hidden information contained here.</blockquote>
</div>
<div class="messageTextEndMarker">&nbsp;</div>
</blockquote>
</article>]]></description>
                <author><![CDATA[vitalya3]]></author>
                </item>

                
                <item>
                <title><![CDATA[【Apple Music】WEB-RiP - Dj Sava &amp; Ruby - Maria (feat. Ruby) (1080p)]]></title>
                <link><![CDATA[https://sharemania.us/threads/dj-sava-ruby-maria-feat-ruby-1080p.249088/]]></link>
                <description><![CDATA[<article>
<blockquote class="messageText SelectQuoteContainer ugc baseHtml">
<img src="https://i.postimg.cc/zv3jV81n/Dj-Sava-Ruby-Maria-feat-Ruby-mp4.jpg" class="bbCodeImage LbImage" alt="[​IMG]" data-url="https://i.postimg.cc/zv3jV81n/Dj-Sava-Ruby-Maria-feat-Ruby-mp4.jpg" style=""><br>
<br>
<div class="bbCodeBlock bbCodeCode">
<div class="type">Code:</div>
<pre>General
Complete name                  : G:\Новая папка\Dj Sava &amp; Ruby - Maria (feat. Ruby).mp4
Format                         : MPEG-4
Format profile                 : Base Media
Codec ID                       : isom (isom/iso2/avc1/mp41)
File size                      : 127 MiB
Duration                       : 2 min 36 s
Overall bit rate               : 6 819 kb/s
Frame rate                     : 29.970 FPS
Movie name                     : Maria (feat. Ruby)
Performer                      : Dj Sava &amp; Ruby
Genre                          : Pop
ContentType                    : Music Video
Recorded date                  : 2022-03-23 07:00:00 UTC
Writing application            : Lavf56.30.100
Copyright                      : ℗ 2022 Cat Music

Video
ID                             : 1
Format                         : AVC
Format/Info                    : Advanced Video Codec
Format profile                 : High@L4
Format settings                : CABAC / 4 Ref Frames
Format settings, CABAC         : Yes
Format settings, Reference fra : 4 frames
Format settings, Slice count   : 8 slices per frame
Codec ID                       : avc1
Codec ID/Info                  : Advanced Video Coding
Duration                       : 2 min 36 s
Bit rate                       : 6 560 kb/s
Width                          : 1 920 pixels
Height                         : 1 038 pixels
Display aspect ratio           : 1.85:1
Frame rate mode                : Constant
Frame rate                     : 29.970 (30000/1001) FPS
Color space                    : YUV
Chroma subsampling             : 4:2:0
Bit depth                      : 8 bits
Scan type                      : Progressive
Bits/(Pixel*Frame)             : 0.110
Stream size                    : 122 MiB (96%)
Color range                    : Limited
Color primaries                : BT.709
Transfer characteristics       : BT.709
Matrix coefficients            : BT.709
Codec configuration box        : avcC

Audio
ID                             : 2
Format                         : AAC LC
Format/Info                    : Advanced Audio Codec Low Complexity
Codec ID                       : mp4a-40-2
Duration                       : 2 min 36 s
Duration_LastFrame             : -7 ms
Bit rate mode                  : Constant
Bit rate                       : 253 kb/s
Channel(s)                     : 2 channels
Channel layout                 : L R
Sampling rate                  : 48.0 kHz
Frame rate                     : 46.875 FPS (1024 SPF)
Compression mode               : Lossy
Stream size                    : 4.70 MiB (4%)
Default                        : Yes
Alternate group                : 1

</pre>
</div>
<div class="bbCodeBlock bbCodeVfcHH HiddenContent">
<div class="attribution type">Hidden Content:</div>
<blockquote>You must either reply or click 'Like' to see the hidden information contained here.</blockquote>
</div>
<div class="messageTextEndMarker">&nbsp;</div>
</blockquote>
</article>]]></description>
                <author><![CDATA[vitalya3]]></author>
                </item>

                </channel></rss>